<svg xmlns="http://www.w3.org/2000/svg" xmlns:xlink="http://www.w3.org/1999/xlink" version="1.1" x="0px" y="0px" viewBox="0 0 128 160" style="enable-background:new 0 0 128 128;" xml:space="preserve"><g  fill="#ffcb9a"><g><path d="M49.132,81.275l10.798-11.22c1.312-1.364,3.084-2.126,4.989-2.146c1.895,0.003,3.695,0.705,5.037,2.041    l10.909,10.858l36.032-29.7c0.014-0.011,0.03-0.018,0.044-0.029l3.425-2.823L63.545,1.995L6.562,48.211L49.132,81.275z     M41.581,53.489l16.135-14.454l2.318-1.974c-1.458-5.013-0.1-10.4,3.654-14.085l0.815-0.834c0.163-0.168,0.353-0.307,0.562-0.414    c-0.003-0.003,0.046-0.043,0.097-0.082c0.107-0.082,0.238-0.182,0.39-0.284c0.11-0.104,0.231-0.198,0.36-0.277    c0.182-0.113,0.354-0.225,0.521-0.333c0.53-0.345,1.078-0.702,1.779-0.994c1.674-0.787,3.559-1.206,5.674-1.242    c1.505-0.03,3.122,0.209,4.95,0.716c0.74,0.206,1.317,0.782,1.517,1.517c0.201,0.735-0.004,1.52-0.539,2.067l-4.943,5.048    c-0.437,0.445-0.676,0.946-0.769,1.609l0.018,1.012c0.05,0.204,0.103,0.43,0.134,0.693l0.21,0.398    c0.081,0.116,0.148,0.232,0.201,0.347c0.061,0.055,0.17,0.15,0.275,0.25c0.603,0.575,1.34,0.9,2.035,0.9    c0.013,0,0.025,0,0.038-0.001c0.706-0.012,1.449-0.363,2.037-0.964l4.943-5.048c0.518-0.526,1.27-0.758,1.997-0.614    c0.727,0.146,1.331,0.647,1.601,1.331c1.806,4.569,1.149,9.675-1.756,13.667c-0.394,0.59-0.905,1.113-1.359,1.576    c-0.41,0.418-0.769,0.784-1.268,1.15l-0.004,0.004c-0.072,0.074-0.15,0.142-0.232,0.206c-2.639,2.024-5.624,3.078-8.87,3.133    c-1.279,0.019-2.524-0.12-3.745-0.432l-1.879,2.304L54.505,65.82c-0.032,0.039-0.067,0.076-0.103,0.113    c-1.468,1.498-3.419,2.239-5.45,2.239c-2.269,0-4.639-0.924-6.55-2.746c-1.847-1.761-2.931-4.146-2.972-6.541    c-0.035-2.031,0.692-3.913,2.048-5.298C41.512,53.553,41.546,53.52,41.581,53.489z"/><path d="M51.224,62.971L67.9,43.216c0.592-0.726,1.588-0.994,2.471-0.662c1.214,0.456,2.378,0.663,3.659,0.636    c2.235-0.038,4.305-0.757,6.154-2.139l0.028-0.028c0.1-0.102,0.211-0.195,0.33-0.276c0.24-0.163,0.41-0.334,0.805-0.737    c0.325-0.332,0.695-0.711,0.859-0.963c0.022-0.033,0.045-0.066,0.069-0.098c1.291-1.761,1.957-3.833,1.958-5.926l-2.048,2.091    c-1.405,1.435-3.215,2.243-5.093,2.276c-1.89,0.008-3.715-0.715-5.171-2.103c-0.372-0.355-0.822-0.786-1.133-1.356    c-0.122-0.173-0.21-0.347-0.273-0.516l-0.342-0.648c-0.157-0.296-0.241-0.624-0.248-0.96l-0.003-0.141    c-0.006-0.034-0.021-0.08-0.031-0.124c-0.05-0.199-0.124-0.501-0.129-0.87l-0.022-1.275c-0.002-0.09,0.002-0.179,0.012-0.269    c0.183-1.674,0.852-3.111,1.988-4.273l1.973-2.014c-1.393,0.051-2.581,0.327-3.721,0.861c-0.418,0.176-0.745,0.389-1.158,0.658    c-0.126,0.081-0.254,0.165-0.385,0.248c-0.153,0.149-0.328,0.274-0.518,0.371c0.003,0.003-0.046,0.043-0.097,0.082    c-0.106,0.081-0.234,0.18-0.384,0.279l-0.656,0.671c-2.908,2.855-3.756,7.126-2.194,10.916c0.355,0.86,0.114,1.849-0.597,2.454    l-3.4,2.894L44.569,56.638c-0.659,0.703-0.787,1.567-0.776,2.173c0.021,1.237,0.633,2.547,1.636,3.504    C47.276,64.076,49.805,64.359,51.224,62.971z"/><path d="M64.996,72.228c-0.01,0-0.019,0.001-0.029,0.001c-0.717,0.007-1.384,0.294-1.877,0.807l-8.58,8.914    l21.046-0.304l-8.692-8.651C66.365,72.5,65.703,72.228,64.996,72.228z"/><path d="M122.046,61.787l-4.17-5.855L83.868,83.955l-1.745,1.438c-0.038,0.032-0.082,0.056-0.122,0.084    c-0.03,0.021-0.058,0.042-0.089,0.062c-0.154,0.099-0.316,0.179-0.489,0.237c-0.029,0.01-0.058,0.015-0.087,0.024    c-0.187,0.054-0.379,0.091-0.577,0.093l-31.382,0.452c-0.011,0-0.021,0-0.032,0c-0.233,0-0.458-0.042-0.672-0.111    c-0.067-0.021-0.124-0.059-0.189-0.087c-0.145-0.062-0.284-0.131-0.412-0.222c-0.023-0.016-0.051-0.022-0.073-0.039L9.851,56.294    l-5.709,5.341l58.346,47.941L122.046,61.787z"/><path d="M66.294,112.082l-2.45,1.966c-0.001,0.001-0.002,0.001-0.003,0.002c-0.399,0.321-0.885,0.48-1.37,0.48    l0,0h0c-0.117,0-0.234-0.011-0.35-0.029c-0.007-0.001-0.014-0.001-0.02-0.002c-0.105-0.018-0.209-0.047-0.311-0.08    c-0.017-0.005-0.034-0.007-0.051-0.013c-0.107-0.038-0.21-0.086-0.311-0.141c-0.01-0.006-0.022-0.009-0.032-0.015    c-0.11-0.062-0.216-0.134-0.316-0.216L7.044,69.748l-5.102,4.218l61.408,52.02l62.592-50.637l-7.091-5.428L66.294,112.082z"/></g></g>
</svg>